<?xml version="1.0" encoding="UTF-8"?>
<svg id="uuid-6f546960-fcde-48b3-8e30-9bf82dd5d33a" data-name="Layer 1" xmlns="http://www.w3.org/2000/svg" viewBox="0 0 595.3 841.9">
  <rect x="235" y="378" width="81" height="81" style="fill: none; stroke: #1e1e1e; stroke-miterlimit: 10;"/>
  <text transform="translate(235 442.4) scale(.6 1)" style="font-family: AgencyFB-Reg, &apos;Agency FB&apos;; font-size: 73.01px; isolation: isolate;"><tspan x="0" y="0" xml:space="preserve">&lt;      &gt;</tspan></text>
  <path d="M266.2,435.8c.4-2,.9-4.1,1.4-6.3,3.2-13.5,6.4-27,9.6-40.5,.2-.8,.2-2.1,1.5-2,1.1,.1,1.2,1.3,1.3,2.3,0,.6-.1,1.3-.2,1.9-3.6,15.2-7.1,30.4-10.7,45.6-.1,.3-.1,.5-.2,.8-.2,.4-.4,.9-1,.9s-.9-.4-1.1-.8c-.4-.5-.5-1.1-.6-1.9Z" style="fill: #1e1e1e;"/>
  <path d="M274.5,413.6c-.8-.9-1.6-1.9-2.4-2.8-4.8-5.6-9.6-11.2-14.4-16.8-.4-.5-.9-1-1.4-1.3-.8-.5-1.8-1.1-2.6-.3-.9,.9,.1,1.7,.7,2.3,5.6,6.5,11.2,13.1,16.9,19.6,.8,.9,1.6,1.9,2.4,2.8l.8-3.5Z" style="fill: #1e1e1e;"/>
  <text transform="translate(261.45 440.48) rotate(13.6) scale(.95 1)" style="font-family: AgencyFB-Reg, &apos;Agency FB&apos;; font-size: 58.69px; isolation: isolate;"><tspan x="0" y="0">G</tspan></text>
</svg>