<?xml version="1.0" encoding="UTF-8"?>
<svg id="uuid-cf94e216-99d4-4efe-a718-51f495abb2ef" data-name="Layer 1" xmlns="http://www.w3.org/2000/svg" viewBox="0 0 606.64 802.72">
  <rect x="250.11" y="324.88" width="81" height="81" style="fill: none; stroke: #1e1e1e; stroke-miterlimit: 10;"/>
  <text transform="translate(250.11 389.3) scale(.6 1)" style="font-family: AgencyFB-Reg, &apos;Agency FB&apos;; font-size: 73.01px; isolation: isolate;"><tspan x="0" y="0" xml:space="preserve">&lt;      &gt;</tspan></text>
  <path d="M283.71,386.58c.4-2,.9-4.1,1.4-6.3,3.2-13.5,6.4-27,9.6-40.5,.2-.8,.2-2.1,1.5-2,1.1,.1,1.2,1.3,1.3,2.3,0,.6-.1,1.3-.2,1.9-3.6,15.2-7.1,30.4-10.7,45.6-.1,.3-.1,.5-.2,.8-.2,.4-.4,.9-1,.9s-.9-.4-1.1-.8c-.4-.5-.5-1.1-.6-1.9Z" style="fill: #1e1e1e;"/>
</svg>